# xmcd
#
# Track frame offsets:
#	150
#	12270
#	28359
#	43493
#	60136
#	91120
#	103092
#	116856
#
# Disc length: 1857 seconds
#
# Revision: 1
# Processed by: cddbd v1.5.2PL0 Copyright (c) Steve Scherf et al.
# Submitted via: audiograbber 1.83.01
#
DISCID=66073f08
DTITLE=Pitpony - A small but angry creature
DYEAR=2009
DGENRE=Progressive Rock
TTITLE0=This it
TTITLE1=Breathe in breathe out
TTITLE2=Born without a case
TTITLE3=The flickering beauty
TTITLE4=Sweet Johnny
TTITLE5=Part of the world
TTITLE6=Never before
TTITLE7=No way
EXTD=
EXTT0=
EXTT1=
EXTT2=
EXTT3=
EXTT4=
EXTT5=
EXTT6=
EXTT7=
PLAYORDER=
